<mxfile host="Electron" modified="2024-01-31T11:29:46.471Z" agent="Mozilla/5.0 (Windows NT 10.0; Win64; x64) AppleWebKit/537.36 (KHTML, like Gecko) draw.io/23.0.2 Chrome/120.0.6099.109 Electron/28.1.0 Safari/537.36" etag="YqHNeNeIFMNNl_-sOPlN" version="23.0.2" type="device">
  <diagram id="C5RBs43oDa-KdzZeNtuy" name="Page-1">
    <mxGraphModel dx="1050" dy="1790" grid="1" gridSize="10" guides="1" tooltips="1" connect="1" arrows="1" fold="1" page="1" pageScale="1" pageWidth="827" pageHeight="1169" math="0" shadow="0">
      <root>
        <mxCell id="WIyWlLk6GJQsqaUBKTNV-0" />
        <mxCell id="WIyWlLk6GJQsqaUBKTNV-1" parent="WIyWlLk6GJQsqaUBKTNV-0" />
        <mxCell id="yc_olPPboM0k-ENsRr62-20" style="edgeStyle=orthogonalEdgeStyle;rounded=0;orthogonalLoop=1;jettySize=auto;html=1;exitX=0;exitY=0.5;exitDx=0;exitDy=0;startArrow=classic;startFill=1;" parent="WIyWlLk6GJQsqaUBKTNV-1" source="7szqiaZRJZwIeRDCQAcz-0" target="yc_olPPboM0k-ENsRr62-11" edge="1">
          <mxGeometry relative="1" as="geometry" />
        </mxCell>
        <mxCell id="yc_olPPboM0k-ENsRr62-22" style="edgeStyle=orthogonalEdgeStyle;rounded=0;orthogonalLoop=1;jettySize=auto;html=1;exitX=1;exitY=0.5;exitDx=0;exitDy=0;" parent="WIyWlLk6GJQsqaUBKTNV-1" source="7szqiaZRJZwIeRDCQAcz-0" target="7szqiaZRJZwIeRDCQAcz-6" edge="1">
          <mxGeometry relative="1" as="geometry" />
        </mxCell>
        <mxCell id="yc_olPPboM0k-ENsRr62-23" style="edgeStyle=orthogonalEdgeStyle;rounded=0;orthogonalLoop=1;jettySize=auto;html=1;exitX=0.5;exitY=1;exitDx=0;exitDy=0;" parent="WIyWlLk6GJQsqaUBKTNV-1" source="7szqiaZRJZwIeRDCQAcz-0" target="yc_olPPboM0k-ENsRr62-1" edge="1">
          <mxGeometry relative="1" as="geometry" />
        </mxCell>
        <mxCell id="7szqiaZRJZwIeRDCQAcz-0" value="Core" style="rounded=1;whiteSpace=wrap;html=1;" parent="WIyWlLk6GJQsqaUBKTNV-1" vertex="1">
          <mxGeometry x="468" y="240" width="120" height="40" as="geometry" />
        </mxCell>
        <mxCell id="7szqiaZRJZwIeRDCQAcz-2" style="edgeStyle=orthogonalEdgeStyle;rounded=0;orthogonalLoop=1;jettySize=auto;html=1;" parent="WIyWlLk6GJQsqaUBKTNV-1" source="7szqiaZRJZwIeRDCQAcz-1" target="7szqiaZRJZwIeRDCQAcz-0" edge="1">
          <mxGeometry relative="1" as="geometry" />
        </mxCell>
        <mxCell id="7szqiaZRJZwIeRDCQAcz-1" value="Android" style="ellipse;whiteSpace=wrap;html=1;aspect=fixed;" parent="WIyWlLk6GJQsqaUBKTNV-1" vertex="1">
          <mxGeometry x="488" y="40" width="80" height="80" as="geometry" />
        </mxCell>
        <mxCell id="7szqiaZRJZwIeRDCQAcz-6" value="MyAnimeList" style="whiteSpace=wrap;html=1;rounded=1;" parent="WIyWlLk6GJQsqaUBKTNV-1" vertex="1">
          <mxGeometry x="660" y="241" width="120" height="39" as="geometry" />
        </mxCell>
        <mxCell id="yc_olPPboM0k-ENsRr62-1" value="Database" style="whiteSpace=wrap;html=1;rounded=1;fillColor=#e3c800;fontColor=#000000;strokeColor=#B09500;" parent="WIyWlLk6GJQsqaUBKTNV-1" vertex="1">
          <mxGeometry x="468" y="360" width="120" height="40" as="geometry" />
        </mxCell>
        <mxCell id="yc_olPPboM0k-ENsRr62-7" style="edgeStyle=orthogonalEdgeStyle;rounded=0;orthogonalLoop=1;jettySize=auto;html=1;exitX=0.5;exitY=1;exitDx=0;exitDy=0;" parent="WIyWlLk6GJQsqaUBKTNV-1" source="yc_olPPboM0k-ENsRr62-3" target="7szqiaZRJZwIeRDCQAcz-0" edge="1">
          <mxGeometry relative="1" as="geometry">
            <Array as="points">
              <mxPoint x="648" y="160" />
              <mxPoint x="528" y="160" />
            </Array>
          </mxGeometry>
        </mxCell>
        <mxCell id="yc_olPPboM0k-ENsRr62-3" value="Web" style="ellipse;whiteSpace=wrap;html=1;aspect=fixed;" parent="WIyWlLk6GJQsqaUBKTNV-1" vertex="1">
          <mxGeometry x="608" y="40" width="80" height="80" as="geometry" />
        </mxCell>
        <mxCell id="yc_olPPboM0k-ENsRr62-5" style="edgeStyle=orthogonalEdgeStyle;rounded=0;orthogonalLoop=1;jettySize=auto;html=1;exitX=0.5;exitY=1;exitDx=0;exitDy=0;" parent="WIyWlLk6GJQsqaUBKTNV-1" source="yc_olPPboM0k-ENsRr62-4" target="7szqiaZRJZwIeRDCQAcz-0" edge="1">
          <mxGeometry relative="1" as="geometry">
            <Array as="points">
              <mxPoint x="408" y="160" />
              <mxPoint x="528" y="160" />
            </Array>
          </mxGeometry>
        </mxCell>
        <mxCell id="yc_olPPboM0k-ENsRr62-4" value="Windows" style="ellipse;whiteSpace=wrap;html=1;aspect=fixed;" parent="WIyWlLk6GJQsqaUBKTNV-1" vertex="1">
          <mxGeometry x="368" y="40" width="80" height="80" as="geometry" />
        </mxCell>
        <mxCell id="yc_olPPboM0k-ENsRr62-21" style="edgeStyle=orthogonalEdgeStyle;rounded=0;orthogonalLoop=1;jettySize=auto;html=1;exitX=0;exitY=0.5;exitDx=0;exitDy=0;entryX=1;entryY=0.5;entryDx=0;entryDy=0;startArrow=classic;startFill=1;" parent="WIyWlLk6GJQsqaUBKTNV-1" source="yc_olPPboM0k-ENsRr62-11" target="yc_olPPboM0k-ENsRr62-18" edge="1">
          <mxGeometry relative="1" as="geometry" />
        </mxCell>
        <mxCell id="yc_olPPboM0k-ENsRr62-11" value="Common library" style="rounded=1;whiteSpace=wrap;html=1;" parent="WIyWlLk6GJQsqaUBKTNV-1" vertex="1">
          <mxGeometry x="270" y="241" width="120" height="39" as="geometry" />
        </mxCell>
        <mxCell id="yc_olPPboM0k-ENsRr62-18" value="" style="rounded=1;whiteSpace=wrap;html=1;absoluteArcSize=1;arcSize=14;strokeWidth=2;" parent="WIyWlLk6GJQsqaUBKTNV-1" vertex="1">
          <mxGeometry x="30" y="211" width="170" height="100" as="geometry" />
        </mxCell>
        <mxCell id="yc_olPPboM0k-ENsRr62-17" value="Extensions" style="text;html=1;align=center;verticalAlign=middle;resizable=0;points=[];autosize=1;strokeColor=none;fillColor=none;" parent="WIyWlLk6GJQsqaUBKTNV-1" vertex="1">
          <mxGeometry x="30" y="209" width="80" height="30" as="geometry" />
        </mxCell>
        <mxCell id="yc_olPPboM0k-ENsRr62-13" value="" style="strokeWidth=2;html=1;shape=mxgraph.flowchart.delay;whiteSpace=wrap;" parent="WIyWlLk6GJQsqaUBKTNV-1" vertex="1">
          <mxGeometry x="60" y="231" width="100" height="40" as="geometry" />
        </mxCell>
        <mxCell id="yc_olPPboM0k-ENsRr62-14" value="" style="strokeWidth=2;html=1;shape=mxgraph.flowchart.delay;whiteSpace=wrap;" parent="WIyWlLk6GJQsqaUBKTNV-1" vertex="1">
          <mxGeometry x="70" y="241" width="100" height="40" as="geometry" />
        </mxCell>
        <mxCell id="yc_olPPboM0k-ENsRr62-15" value="" style="strokeWidth=2;html=1;shape=mxgraph.flowchart.delay;whiteSpace=wrap;" parent="WIyWlLk6GJQsqaUBKTNV-1" vertex="1">
          <mxGeometry x="80" y="251" width="100" height="40" as="geometry" />
        </mxCell>
        <mxCell id="yc_olPPboM0k-ENsRr62-16" value="" style="strokeWidth=2;html=1;shape=mxgraph.flowchart.delay;whiteSpace=wrap;" parent="WIyWlLk6GJQsqaUBKTNV-1" vertex="1">
          <mxGeometry x="90" y="261" width="100" height="40" as="geometry" />
        </mxCell>
        <mxCell id="yc_olPPboM0k-ENsRr62-24" value="&lt;font color=&quot;#000000&quot;&gt;Frontend&lt;br&gt;(View)&lt;br&gt;&lt;/font&gt;" style="shape=callout;whiteSpace=wrap;html=1;perimeter=calloutPerimeter;fillColor=#fad7ac;strokeColor=#b46504;" parent="WIyWlLk6GJQsqaUBKTNV-1" vertex="1">
          <mxGeometry x="620" y="-30" width="90" height="60" as="geometry" />
        </mxCell>
        <mxCell id="yc_olPPboM0k-ENsRr62-25" value="&lt;font color=&quot;#000000&quot;&gt;Business logic&lt;br&gt;&lt;/font&gt;" style="shape=callout;whiteSpace=wrap;html=1;perimeter=calloutPerimeter;fillColor=#fad7ac;strokeColor=#b46504;" parent="WIyWlLk6GJQsqaUBKTNV-1" vertex="1">
          <mxGeometry x="430" y="182" width="90" height="59" as="geometry" />
        </mxCell>
        <mxCell id="yc_olPPboM0k-ENsRr62-26" value="&lt;font color=&quot;#000000&quot;&gt;Not implement&lt;br&gt;&lt;/font&gt;" style="shape=callout;whiteSpace=wrap;html=1;perimeter=calloutPerimeter;fillColor=#fad7ac;strokeColor=#b46504;" parent="WIyWlLk6GJQsqaUBKTNV-1" vertex="1">
          <mxGeometry x="540" y="301" width="90" height="59" as="geometry" />
        </mxCell>
        <mxCell id="MQrZA1_6dEWppx82yMnj-8" value="" style="whiteSpace=wrap;html=1;aspect=fixed;fillColor=#647687;fontColor=#ffffff;strokeColor=#314354;" vertex="1" parent="WIyWlLk6GJQsqaUBKTNV-1">
          <mxGeometry x="109" y="830" width="290" height="290" as="geometry" />
        </mxCell>
        <mxCell id="MQrZA1_6dEWppx82yMnj-11" value="" style="rounded=0;whiteSpace=wrap;html=1;fillColor=#6d8764;fontColor=#ffffff;strokeColor=#3A5431;" vertex="1" parent="WIyWlLk6GJQsqaUBKTNV-1">
          <mxGeometry x="109" y="540" width="290" height="280" as="geometry" />
        </mxCell>
        <mxCell id="MQrZA1_6dEWppx82yMnj-7" style="edgeStyle=orthogonalEdgeStyle;rounded=0;orthogonalLoop=1;jettySize=auto;html=1;exitX=0.5;exitY=0;exitDx=0;exitDy=0;" edge="1" parent="WIyWlLk6GJQsqaUBKTNV-1" source="MQrZA1_6dEWppx82yMnj-4" target="MQrZA1_6dEWppx82yMnj-1">
          <mxGeometry relative="1" as="geometry" />
        </mxCell>
        <mxCell id="MQrZA1_6dEWppx82yMnj-4" value="API" style="ellipse;whiteSpace=wrap;html=1;aspect=fixed;" vertex="1" parent="WIyWlLk6GJQsqaUBKTNV-1">
          <mxGeometry x="228" y="910" width="50" height="50" as="geometry" />
        </mxCell>
        <mxCell id="MQrZA1_6dEWppx82yMnj-6" style="edgeStyle=orthogonalEdgeStyle;rounded=0;orthogonalLoop=1;jettySize=auto;html=1;exitX=0.5;exitY=0;exitDx=0;exitDy=0;entryX=0.5;entryY=1;entryDx=0;entryDy=0;" edge="1" parent="WIyWlLk6GJQsqaUBKTNV-1" source="MQrZA1_6dEWppx82yMnj-5" target="MQrZA1_6dEWppx82yMnj-4">
          <mxGeometry relative="1" as="geometry" />
        </mxCell>
        <mxCell id="MQrZA1_6dEWppx82yMnj-19" style="edgeStyle=orthogonalEdgeStyle;rounded=0;orthogonalLoop=1;jettySize=auto;html=1;exitX=0.5;exitY=0;exitDx=0;exitDy=0;" edge="1" parent="WIyWlLk6GJQsqaUBKTNV-1" source="MQrZA1_6dEWppx82yMnj-5" target="MQrZA1_6dEWppx82yMnj-17">
          <mxGeometry relative="1" as="geometry" />
        </mxCell>
        <mxCell id="MQrZA1_6dEWppx82yMnj-20" style="edgeStyle=orthogonalEdgeStyle;rounded=0;orthogonalLoop=1;jettySize=auto;html=1;exitX=0.5;exitY=0;exitDx=0;exitDy=0;" edge="1" parent="WIyWlLk6GJQsqaUBKTNV-1" source="MQrZA1_6dEWppx82yMnj-5" target="MQrZA1_6dEWppx82yMnj-18">
          <mxGeometry relative="1" as="geometry" />
        </mxCell>
        <mxCell id="MQrZA1_6dEWppx82yMnj-5" value="Core" style="rounded=1;whiteSpace=wrap;html=1;" vertex="1" parent="WIyWlLk6GJQsqaUBKTNV-1">
          <mxGeometry x="193" y="1000" width="120" height="60" as="geometry" />
        </mxCell>
        <mxCell id="MQrZA1_6dEWppx82yMnj-9" value="Extension" style="text;html=1;strokeColor=none;fillColor=none;align=center;verticalAlign=middle;whiteSpace=wrap;rounded=0;" vertex="1" parent="WIyWlLk6GJQsqaUBKTNV-1">
          <mxGeometry x="109" y="830" width="60" height="30" as="geometry" />
        </mxCell>
        <mxCell id="MQrZA1_6dEWppx82yMnj-3" style="edgeStyle=orthogonalEdgeStyle;rounded=0;orthogonalLoop=1;jettySize=auto;html=1;exitX=0.5;exitY=0;exitDx=0;exitDy=0;entryX=0.5;entryY=1;entryDx=0;entryDy=0;" edge="1" parent="WIyWlLk6GJQsqaUBKTNV-1" source="MQrZA1_6dEWppx82yMnj-1" target="MQrZA1_6dEWppx82yMnj-2">
          <mxGeometry relative="1" as="geometry" />
        </mxCell>
        <mxCell id="MQrZA1_6dEWppx82yMnj-15" style="edgeStyle=orthogonalEdgeStyle;rounded=0;orthogonalLoop=1;jettySize=auto;html=1;exitX=0.5;exitY=0;exitDx=0;exitDy=0;entryX=0.5;entryY=1;entryDx=0;entryDy=0;" edge="1" parent="WIyWlLk6GJQsqaUBKTNV-1" source="MQrZA1_6dEWppx82yMnj-1" target="MQrZA1_6dEWppx82yMnj-13">
          <mxGeometry relative="1" as="geometry" />
        </mxCell>
        <mxCell id="MQrZA1_6dEWppx82yMnj-16" style="edgeStyle=orthogonalEdgeStyle;rounded=0;orthogonalLoop=1;jettySize=auto;html=1;exitX=0.5;exitY=0;exitDx=0;exitDy=0;" edge="1" parent="WIyWlLk6GJQsqaUBKTNV-1" source="MQrZA1_6dEWppx82yMnj-1" target="MQrZA1_6dEWppx82yMnj-14">
          <mxGeometry relative="1" as="geometry" />
        </mxCell>
        <mxCell id="MQrZA1_6dEWppx82yMnj-1" value="Core" style="rounded=1;whiteSpace=wrap;html=1;" vertex="1" parent="WIyWlLk6GJQsqaUBKTNV-1">
          <mxGeometry x="193" y="720" width="120" height="60" as="geometry" />
        </mxCell>
        <mxCell id="MQrZA1_6dEWppx82yMnj-2" value="API" style="ellipse;whiteSpace=wrap;html=1;aspect=fixed;" vertex="1" parent="WIyWlLk6GJQsqaUBKTNV-1">
          <mxGeometry x="228" y="600" width="50" height="50" as="geometry" />
        </mxCell>
        <mxCell id="MQrZA1_6dEWppx82yMnj-12" value="Core" style="text;html=1;strokeColor=none;fillColor=none;align=center;verticalAlign=middle;whiteSpace=wrap;rounded=0;" vertex="1" parent="WIyWlLk6GJQsqaUBKTNV-1">
          <mxGeometry x="109" y="540" width="60" height="30" as="geometry" />
        </mxCell>
        <mxCell id="MQrZA1_6dEWppx82yMnj-13" value="Web" style="ellipse;whiteSpace=wrap;html=1;aspect=fixed;" vertex="1" parent="WIyWlLk6GJQsqaUBKTNV-1">
          <mxGeometry x="289" y="600" width="50" height="50" as="geometry" />
        </mxCell>
        <mxCell id="MQrZA1_6dEWppx82yMnj-14" value="APK" style="ellipse;whiteSpace=wrap;html=1;aspect=fixed;" vertex="1" parent="WIyWlLk6GJQsqaUBKTNV-1">
          <mxGeometry x="169" y="600" width="50" height="50" as="geometry" />
        </mxCell>
        <mxCell id="MQrZA1_6dEWppx82yMnj-21" style="edgeStyle=orthogonalEdgeStyle;rounded=0;orthogonalLoop=1;jettySize=auto;html=1;exitX=0;exitY=0.5;exitDx=0;exitDy=0;entryX=0;entryY=0.5;entryDx=0;entryDy=0;dashed=1;" edge="1" parent="WIyWlLk6GJQsqaUBKTNV-1" source="MQrZA1_6dEWppx82yMnj-17" target="MQrZA1_6dEWppx82yMnj-14">
          <mxGeometry relative="1" as="geometry">
            <Array as="points">
              <mxPoint x="49" y="935" />
              <mxPoint x="49" y="625" />
            </Array>
          </mxGeometry>
        </mxCell>
        <mxCell id="MQrZA1_6dEWppx82yMnj-22" value="Connection&amp;nbsp;" style="edgeLabel;html=1;align=center;verticalAlign=middle;resizable=0;points=[];" vertex="1" connectable="0" parent="MQrZA1_6dEWppx82yMnj-21">
          <mxGeometry x="-0.0145" y="2" relative="1" as="geometry">
            <mxPoint as="offset" />
          </mxGeometry>
        </mxCell>
        <mxCell id="MQrZA1_6dEWppx82yMnj-17" value="APK" style="ellipse;whiteSpace=wrap;html=1;aspect=fixed;" vertex="1" parent="WIyWlLk6GJQsqaUBKTNV-1">
          <mxGeometry x="169" y="910" width="50" height="50" as="geometry" />
        </mxCell>
        <mxCell id="MQrZA1_6dEWppx82yMnj-18" value="Web" style="ellipse;whiteSpace=wrap;html=1;aspect=fixed;" vertex="1" parent="WIyWlLk6GJQsqaUBKTNV-1">
          <mxGeometry x="287" y="910" width="50" height="50" as="geometry" />
        </mxCell>
        <mxCell id="MQrZA1_6dEWppx82yMnj-23" value="" style="shape=flexArrow;endArrow=classic;html=1;rounded=0;" edge="1" parent="WIyWlLk6GJQsqaUBKTNV-1" source="MQrZA1_6dEWppx82yMnj-1">
          <mxGeometry width="50" height="50" relative="1" as="geometry">
            <mxPoint x="399" y="770" as="sourcePoint" />
            <mxPoint x="459" y="750" as="targetPoint" />
          </mxGeometry>
        </mxCell>
        <mxCell id="MQrZA1_6dEWppx82yMnj-24" value="&lt;h1&gt;Core&lt;/h1&gt;&lt;p&gt;&lt;/p&gt;&lt;ul&gt;&lt;li&gt;Provide which extensions should be displayed.&lt;/li&gt;&lt;/ul&gt;&lt;p&gt;&lt;/p&gt;" style="text;html=1;spacing=5;spacingTop=-20;whiteSpace=wrap;overflow=hidden;rounded=0;fillColor=none;dashed=1;strokeColor=default;" vertex="1" parent="WIyWlLk6GJQsqaUBKTNV-1">
          <mxGeometry x="476" y="700" width="303" height="120" as="geometry" />
        </mxCell>
      </root>
    </mxGraphModel>
  </diagram>
</mxfile>
